# xmcd CD database file
#
# Track frame offsets:
#	150
#	11807
#	25237
#	36060
#	53817
#	64052
#	75955
#	87927
#	102420
#	113535
#	126262
#	140030
#	155995
#	171740
#	188155
#	203785
#	218547
#	232417
#	250352
#	268087
#	285377
#	301157
#	315335
#	330105
#
# Disc length: 4619 seconds
#
# Revision: 0
# Processed by: cddbd v1.4PL0 Copyright (c) Steve Scherf et al.
# Submitted via: CDex 1.50
#
DISCID=53120918
DTITLE=Wild Bill Davison - "Pretty Wild" and "With Strings Attached"
DYEAR=2000
DGENRE=Jazz
TTITLE0=Mandy, Make Up Your Mind
TTITLE1=Black Butterfly
TTITLE2=If I Had You
TTITLE3=Just a Gigolo
TTITLE4=Blua Again
TTITLE5=When Your Lover Has Gone
TTITLE6=Sugar
TTITLE7=Sweet and Lovely
TTITLE8=Rockin' Chair
TTITLE9=She's Funny Tha Way (I Got a Women, Crazy for Me)
TTITLE10=I Don't Stand a Ghost of a Chance With You
TTITLE11=Wild Man Blues
TTITLE12=Love Is Here to Stay
TTITLE13=Blue (and Broken Hearted)
TTITLE14=It's The Talk of the Town
TTITLE15=Mournin' Blues
TTITLE16=Prelude to a Kiss
TTITLE17=Sentimental Journey
TTITLE18=You Turned the Tables on Me
TTITLE19=My Inspiration
TTITLE20=Now That You're Gone
TTITLE21=Limehouse Blues
TTITLE22=Moanin' Low
TTITLE23=Serenade in Blue
EXTD=YEAR: 2000
EXTT0=
EXTT1=
EXTT2=
EXTT3=
EXTT4=
EXTT5=
EXTT6=
EXTT7=
EXTT8=
EXTT9=
EXTT10=
EXTT11=
EXTT12=
EXTT13=
EXTT14=
EXTT15=
EXTT16=
EXTT17=
EXTT18=
EXTT19=
EXTT20=
EXTT21=
EXTT22=
EXTT23=
PLAYORDER=
